<svg xmlns="http://www.w3.org/2000/svg" xmlns:xlink="http://www.w3.org/1999/xlink" width="500" zoomAndPan="magnify" viewBox="0 0 375 374.999991" height="500" preserveAspectRatio="xMidYMid meet" version="1.0"><defs><g/></defs><g fill="#121212" fill-opacity="1"><g transform="translate(18.408539, 159.645107)"><g><path d="M 32.78125 1.296875 C 26.695312 1.296875 21.300781 0.09375 16.59375 -2.3125 C 11.894531 -4.726562 8.210938 -8.269531 5.546875 -12.9375 C 2.878906 -17.613281 1.546875 -23.367188 1.546875 -30.203125 C 1.546875 -37.023438 2.878906 -42.757812 5.546875 -47.40625 C 8.210938 -52.050781 11.894531 -55.5625 16.59375 -57.9375 C 21.300781 -60.320312 26.695312 -61.515625 32.78125 -61.515625 C 38.851562 -61.515625 44.238281 -60.320312 48.9375 -57.9375 C 53.644531 -55.5625 57.332031 -52.050781 60 -47.40625 C 62.664062 -42.757812 64 -37.023438 64 -30.203125 C 64 -23.367188 62.664062 -17.613281 60 -12.9375 C 57.332031 -8.269531 53.644531 -4.726562 48.9375 -2.3125 C 44.238281 0.09375 38.851562 1.296875 32.78125 1.296875 Z M 32.78125 -24.265625 C 36.21875 -24.265625 38.984375 -24.78125 41.078125 -25.8125 C 43.171875 -26.84375 44.21875 -28.273438 44.21875 -30.109375 C 44.21875 -31.941406 43.171875 -33.375 41.078125 -34.40625 C 38.984375 -35.445312 36.21875 -35.96875 32.78125 -35.96875 C 29.28125 -35.96875 26.492188 -35.445312 24.421875 -34.40625 C 22.359375 -33.375 21.328125 -31.941406 21.328125 -30.109375 C 21.328125 -28.273438 22.359375 -26.84375 24.421875 -25.8125 C 26.492188 -24.78125 29.28125 -24.265625 32.78125 -24.265625 Z M 32.78125 -24.265625 "/></g></g></g><g fill="#121212" fill-opacity="1"><g transform="translate(83.608295, 159.645107)"><g><path d="M 30.03125 1.296875 C 21.3125 1.296875 14.5 -0.835938 9.59375 -5.109375 C 4.6875 -9.390625 2.234375 -15.570312 2.234375 -23.65625 L 2.234375 -60.21875 L 23.75 -60.21875 L 21.859375 -35.78125 C 21.617188 -32.519531 22.171875 -29.910156 23.515625 -27.953125 C 24.867188 -26.003906 27.039062 -25.03125 30.03125 -25.03125 C 33.0625 -25.03125 35.265625 -26.003906 36.640625 -27.953125 C 38.023438 -29.910156 38.570312 -32.519531 38.28125 -35.78125 L 36.390625 -60.21875 L 57.90625 -60.21875 L 57.90625 -23.65625 C 57.90625 -15.6875 55.46875 -9.535156 50.59375 -5.203125 C 45.71875 -0.867188 38.863281 1.296875 30.03125 1.296875 Z M 30.03125 1.296875 "/></g></g></g><g fill="#121212" fill-opacity="1"><g transform="translate(143.389069, 159.645107)"><g><path d="M 28.125 -23.578125 L 22.03125 -23.578125 L 24.34375 0 L 2.40625 0 L 2.40625 -60.21875 L 33.546875 -60.21875 C 38.484375 -60.164062 42.859375 -59.5625 46.671875 -58.40625 C 50.484375 -57.257812 53.460938 -55.394531 55.609375 -52.8125 C 57.765625 -50.238281 58.84375 -46.710938 58.84375 -42.234375 C 58.84375 -37.703125 56.820312 -34.015625 52.78125 -31.171875 C 48.738281 -28.335938 42.613281 -26.921875 34.40625 -26.921875 L 34.40625 -25.890625 L 39.75 -25.890625 C 44.445312 -25.890625 48.316406 -24.800781 51.359375 -22.625 C 54.398438 -20.445312 56.578125 -17.421875 57.890625 -13.546875 C 59.210938 -9.679688 59.585938 -5.164062 59.015625 0 L 34.328125 0 C 35.015625 -2.863281 35.425781 -5.6875 35.5625 -8.46875 C 35.707031 -11.25 35.566406 -13.785156 35.140625 -16.078125 C 34.710938 -18.378906 33.925781 -20.203125 32.78125 -21.546875 C 31.632812 -22.898438 30.082031 -23.578125 28.125 -23.578125 Z M 32.34375 -35.703125 L 22.03125 -35.703125 L 22.03125 -29.765625 L 32.265625 -29.765625 C 34.265625 -29.765625 35.867188 -30.007812 37.078125 -30.5 C 38.285156 -30.988281 38.890625 -31.71875 38.890625 -32.6875 C 38.890625 -33.832031 38.269531 -34.617188 37.03125 -35.046875 C 35.800781 -35.484375 34.238281 -35.703125 32.34375 -35.703125 Z M 32.34375 -35.703125 "/></g></g></g><g fill="#121212" fill-opacity="1"><g transform="translate(203.599937, 159.645107)"><g/></g></g><g fill="#121212" fill-opacity="1"><g transform="translate(18.408539, 226.395103)"><g><path d="M 30.375 1.296875 C 28.476562 1.296875 26.265625 1.191406 23.734375 0.984375 C 21.210938 0.785156 18.601562 0.484375 15.90625 0.078125 C 13.21875 -0.316406 10.640625 -0.800781 8.171875 -1.375 C 5.703125 -1.945312 3.550781 -2.609375 1.71875 -3.359375 L 1.71875 -31.0625 C 4.875 -28.476562 8.945312 -26.46875 13.9375 -25.03125 C 18.925781 -23.601562 24.117188 -22.890625 29.515625 -22.890625 C 32.316406 -22.890625 34.503906 -23.015625 36.078125 -23.265625 C 37.660156 -23.523438 38.453125 -24.03125 38.453125 -24.78125 C 38.453125 -25.582031 37.789062 -26.164062 36.46875 -26.53125 C 35.15625 -26.90625 33.421875 -27.164062 31.265625 -27.3125 C 29.117188 -27.457031 26.753906 -27.644531 24.171875 -27.875 C 21.585938 -28.101562 18.988281 -28.503906 16.375 -29.078125 C 13.769531 -29.648438 11.390625 -30.492188 9.234375 -31.609375 C 7.085938 -32.734375 5.351562 -34.285156 4.03125 -36.265625 C 2.71875 -38.242188 2.0625 -40.78125 2.0625 -43.875 C 2.0625 -48.0625 3.304688 -51.445312 5.796875 -54.03125 C 8.296875 -56.613281 11.722656 -58.503906 16.078125 -59.703125 C 20.441406 -60.910156 25.378906 -61.515625 30.890625 -61.515625 C 33.523438 -61.515625 36.476562 -61.296875 39.75 -60.859375 C 43.019531 -60.429688 46.21875 -59.832031 49.34375 -59.0625 C 52.46875 -58.289062 55.0625 -57.382812 57.125 -56.34375 L 54.28125 -31.484375 C 51.300781 -33.316406 47.816406 -34.734375 43.828125 -35.734375 C 39.847656 -36.742188 35.878906 -37.25 31.921875 -37.25 C 29.109375 -37.25 26.828125 -37.078125 25.078125 -36.734375 C 23.328125 -36.390625 22.453125 -35.816406 22.453125 -35.015625 C 22.453125 -34.148438 23.109375 -33.53125 24.421875 -33.15625 C 25.742188 -32.789062 27.492188 -32.550781 29.671875 -32.4375 C 31.859375 -32.320312 34.253906 -32.175781 36.859375 -32 C 39.472656 -31.832031 42.082031 -31.519531 44.6875 -31.0625 C 47.300781 -30.601562 49.695312 -29.851562 51.875 -28.8125 C 54.050781 -27.78125 55.800781 -26.332031 57.125 -24.46875 C 58.445312 -22.613281 59.109375 -20.191406 59.109375 -17.203125 C 59.109375 -13.128906 57.929688 -9.71875 55.578125 -6.96875 C 53.222656 -4.21875 49.894531 -2.148438 45.59375 -0.765625 C 41.289062 0.609375 36.21875 1.296875 30.375 1.296875 Z M 30.375 1.296875 "/></g></g></g><g fill="#121212" fill-opacity="1"><g transform="translate(78.877434, 226.395103)"><g><path d="M 53.59375 -60.21875 L 53.859375 -33.640625 L 35.09375 -34.5 L 39.234375 0 L 16.171875 0 L 20.21875 -34.5 L 1.546875 -33.640625 L 1.71875 -60.21875 Z M 53.59375 -60.21875 "/></g></g></g><g fill="#121212" fill-opacity="1"><g transform="translate(133.927356, 226.395103)"><g><path d="M 32.78125 1.296875 C 26.695312 1.296875 21.300781 0.09375 16.59375 -2.3125 C 11.894531 -4.726562 8.210938 -8.269531 5.546875 -12.9375 C 2.878906 -17.613281 1.546875 -23.367188 1.546875 -30.203125 C 1.546875 -37.023438 2.878906 -42.757812 5.546875 -47.40625 C 8.210938 -52.050781 11.894531 -55.5625 16.59375 -57.9375 C 21.300781 -60.320312 26.695312 -61.515625 32.78125 -61.515625 C 38.851562 -61.515625 44.238281 -60.320312 48.9375 -57.9375 C 53.644531 -55.5625 57.332031 -52.050781 60 -47.40625 C 62.664062 -42.757812 64 -37.023438 64 -30.203125 C 64 -23.367188 62.664062 -17.613281 60 -12.9375 C 57.332031 -8.269531 53.644531 -4.726562 48.9375 -2.3125 C 44.238281 0.09375 38.851562 1.296875 32.78125 1.296875 Z M 32.78125 -24.265625 C 36.21875 -24.265625 38.984375 -24.78125 41.078125 -25.8125 C 43.171875 -26.84375 44.21875 -28.273438 44.21875 -30.109375 C 44.21875 -31.941406 43.171875 -33.375 41.078125 -34.40625 C 38.984375 -35.445312 36.21875 -35.96875 32.78125 -35.96875 C 29.28125 -35.96875 26.492188 -35.445312 24.421875 -34.40625 C 22.359375 -33.375 21.328125 -31.941406 21.328125 -30.109375 C 21.328125 -28.273438 22.359375 -26.84375 24.421875 -25.8125 C 26.492188 -24.78125 29.28125 -24.265625 32.78125 -24.265625 Z M 32.78125 -24.265625 "/></g></g></g><g fill="#121212" fill-opacity="1"><g transform="translate(199.127113, 226.395103)"><g><path d="M 28.125 -23.578125 L 22.03125 -23.578125 L 24.34375 0 L 2.40625 0 L 2.40625 -60.21875 L 33.546875 -60.21875 C 38.484375 -60.164062 42.859375 -59.5625 46.671875 -58.40625 C 50.484375 -57.257812 53.460938 -55.394531 55.609375 -52.8125 C 57.765625 -50.238281 58.84375 -46.710938 58.84375 -42.234375 C 58.84375 -37.703125 56.820312 -34.015625 52.78125 -31.171875 C 48.738281 -28.335938 42.613281 -26.921875 34.40625 -26.921875 L 34.40625 -25.890625 L 39.75 -25.890625 C 44.445312 -25.890625 48.316406 -24.800781 51.359375 -22.625 C 54.398438 -20.445312 56.578125 -17.421875 57.890625 -13.546875 C 59.210938 -9.679688 59.585938 -5.164062 59.015625 0 L 34.328125 0 C 35.015625 -2.863281 35.425781 -5.6875 35.5625 -8.46875 C 35.707031 -11.25 35.566406 -13.785156 35.140625 -16.078125 C 34.710938 -18.378906 33.925781 -20.203125 32.78125 -21.546875 C 31.632812 -22.898438 30.082031 -23.578125 28.125 -23.578125 Z M 32.34375 -35.703125 L 22.03125 -35.703125 L 22.03125 -29.765625 L 32.265625 -29.765625 C 34.265625 -29.765625 35.867188 -30.007812 37.078125 -30.5 C 38.285156 -30.988281 38.890625 -31.71875 38.890625 -32.6875 C 38.890625 -33.832031 38.269531 -34.617188 37.03125 -35.046875 C 35.800781 -35.484375 34.238281 -35.703125 32.34375 -35.703125 Z M 32.34375 -35.703125 "/></g></g></g><g fill="#121212" fill-opacity="1"><g transform="translate(259.337966, 226.395103)"><g><path d="M 32.265625 -36.390625 L 35.609375 -60.21875 L 62.96875 -60.21875 L 40 -23.65625 L 43.96875 0 L 19.1875 0 L 23.234375 -23.65625 L 0.171875 -60.21875 L 27.4375 -60.21875 L 30.890625 -36.390625 Z M 32.265625 -36.390625 "/></g></g></g></svg>