<svg xmlns="http://www.w3.org/2000/svg" xmlns:xlink="http://www.w3.org/1999/xlink" width="500" zoomAndPan="magnify" viewBox="0 0 375 374.999991" height="500" preserveAspectRatio="xMidYMid meet" version="1.0"><defs><clipPath id="9f364c13bd"><path d="M 270 203 L 345.75 203 L 345.75 308 L 270 308 Z M 270 203 " clip-rule="nonzero"/></clipPath><clipPath id="6f4bf8693f"><path d="M 167 320 L 180 320 L 180 337.5 L 167 337.5 Z M 167 320 " clip-rule="nonzero"/></clipPath><clipPath id="913fb847f0"><path d="M 37.5 68 L 69 68 L 69 96 L 37.5 96 Z M 37.5 68 " clip-rule="nonzero"/></clipPath></defs><path fill="#000000" d="M 67.820312 98.988281 C 59.667969 84.09375 58.746094 63.859375 79.261719 50.9375 C 100.476562 37.570312 120.910156 39.117188 137.921875 48.988281 C 143.902344 52.457031 148.445312 57.046875 151.800781 63.511719 C 154.308594 68.339844 157.839844 80.425781 162.164062 99.777344 C 162.164062 99.773438 162.164062 99.773438 162.164062 99.773438 C 162.734375 102.046875 172.828125 115.867188 191.207031 129.761719 C 199.78125 136.242188 207.558594 141.832031 214.417969 146.757812 C 219.785156 150.617188 224.609375 154.078125 228.777344 157.230469 C 233.117188 160.511719 236.808594 163.496094 239.726562 166.289062 C 241.707031 168.1875 243.617188 169.992188 245.539062 171.8125 C 247.359375 173.535156 249.183594 175.265625 250.925781 176.929688 C 261.472656 187.027344 270.628906 196.453125 275.171875 206.625 C 286.574219 232.148438 273.242188 252.113281 245.300781 265.367188 C 223.183594 275.855469 193.988281 274.007812 157.640625 258 C 137.277344 249.03125 123.140625 235.175781 113.316406 218.273438 C 106.195312 206.019531 95.675781 177.71875 82.566406 132.933594 C 81.164062 128.136719 77.851562 117.742188 67.203125 97.8125 C 66.621094 96.726562 67.035156 95.375 68.121094 94.796875 C 69.207031 94.214844 70.558594 94.625 71.140625 95.710938 C 81.929688 115.902344 85.359375 126.582031 86.851562 131.683594 C 99.976562 176.527344 110.367188 204.316406 117.175781 216.035156 C 126.5625 232.1875 140.011719 245.359375 159.4375 253.917969 C 195.210938 269.671875 222.933594 271.035156 243.386719 261.335938 C 270.3125 248.5625 281.054688 230.730469 271.097656 208.445312 C 266.964844 199.191406 258.472656 190.332031 247.839844 180.152344 C 246.113281 178.5 244.285156 176.769531 242.472656 175.050781 C 240.550781 173.234375 238.628906 171.414062 236.636719 169.507812 C 233.910156 166.898438 230.378906 164.035156 226.085938 160.789062 C 221.96875 157.675781 217.195312 154.246094 211.8125 150.378906 C 204.957031 145.453125 197.136719 139.835938 188.515625 133.316406 C 170.195312 119.46875 158.828125 104.816406 157.835938 100.859375 C 157.824219 100.820312 157.816406 100.789062 157.808594 100.75 C 153.453125 81.257812 150.027344 69.78125 147.839844 65.566406 C 144.886719 59.878906 140.957031 55.90625 135.679688 52.84375 C 120.027344 43.765625 101.378906 42.277344 81.640625 54.710938 C 63.769531 65.96875 64.304688 83.269531 71.738281 96.847656 C 72.328125 97.925781 71.929688 99.28125 70.851562 99.871094 C 69.769531 100.464844 68.414062 100.066406 67.820312 98.988281 Z M 67.820312 98.988281 " fill-opacity="1" fill-rule="nonzero"/><path fill="#000000" d="M 97.953125 181.289062 C 96.859375 176.359375 95.421875 168.746094 95.417969 168.738281 L 97.613281 168.328125 L 95.421875 168.742188 C 95.050781 166.78125 95.207031 164.96875 95.375 163.53125 C 95.957031 158.457031 97.976562 153.191406 101.53125 147.878906 C 103.390625 145.105469 105.617188 142.773438 108.25 141.152344 C 128.539062 128.683594 150.53125 107.828125 156.84375 95.734375 C 157.414062 94.644531 158.761719 94.21875 159.855469 94.789062 C 160.949219 95.359375 161.371094 96.707031 160.800781 97.800781 C 153.949219 110.925781 131.171875 132.300781 110.585938 144.953125 C 108.625 146.160156 106.832031 147.980469 105.242188 150.359375 C 102.007812 155.191406 100.296875 159.789062 99.808594 164.039062 C 99.652344 165.398438 99.566406 166.652344 99.804688 167.914062 L 97.613281 168.328125 L 99.804688 167.921875 C 99.808594 167.925781 101.238281 175.472656 102.3125 180.320312 C 102.578125 181.523438 101.820312 182.714844 100.617188 182.980469 C 99.414062 183.25 98.222656 182.488281 97.953125 181.289062 Z M 97.953125 181.289062 " fill-opacity="1" fill-rule="nonzero"/><path fill="#000000" d="M 145.644531 115.488281 C 152.777344 138.609375 160.957031 157.007812 165.328125 164.109375 C 170.574219 172.632812 178.691406 182.910156 190.566406 194.503906 C 213.007812 216.421875 240.105469 230.730469 272.089844 237.257812 C 273.296875 237.503906 274.078125 238.683594 273.832031 239.890625 C 273.585938 241.097656 272.40625 241.875 271.199219 241.628906 C 238.394531 234.933594 210.515625 220.226562 187.445312 197.695312 C 175.367188 185.898438 167 175.339844 161.527344 166.445312 C 156.871094 158.886719 148.5625 140.082031 141.382812 116.804688 C 141.019531 115.625 141.679688 114.378906 142.855469 114.015625 C 144.035156 113.652344 145.285156 114.3125 145.644531 115.488281 Z M 145.644531 115.488281 " fill-opacity="1" fill-rule="nonzero"/><g clip-path="url(#9f364c13bd)"><path fill="#000000" d="M 274.046875 204.21875 C 276.816406 207.3125 279.679688 210.414062 282.566406 213.546875 C 285.464844 216.691406 288.371094 219.84375 291.210938 223.015625 C 295.566406 227.875 299.753906 232.769531 303.429688 237.660156 C 305.59375 240.539062 308.027344 242.96875 310.445312 245.335938 C 314.671875 249.46875 318.144531 252.578125 320.890625 254.6875 L 320.796875 254.621094 L 343.773438 270.492188 C 343.804688 270.515625 343.839844 270.539062 343.871094 270.566406 C 344.320312 270.914062 344.730469 271.332031 345.054688 271.839844 L 345.054688 271.835938 C 345.472656 272.488281 345.703125 273.226562 345.722656 274.003906 C 345.753906 275.355469 344.941406 276.273438 344.199219 276.78125 C 343.222656 277.445312 341.851562 277.796875 340.457031 278.023438 C 338.335938 278.367188 335.289062 277.613281 331.8125 276.574219 C 332.753906 276.855469 333.21875 276.070312 333.1875 276.136719 L 332.542969 273.335938 C 339.421875 278.515625 344.628906 283.484375 343.726562 287.640625 C 343.628906 288.105469 343.457031 288.542969 343.214844 288.949219 C 343.128906 289.097656 343.035156 289.238281 342.933594 289.371094 C 342.417969 290.050781 341.75 290.554688 341.035156 290.925781 C 339.464844 291.742188 337.714844 291.664062 336.019531 291.085938 C 335.800781 291.011719 335.59375 290.902344 335.40625 290.765625 C 329.765625 286.574219 326.757812 284.992188 325.90625 284.917969 C 325.832031 284.914062 326.515625 284.984375 327.023438 284.300781 C 327.101562 284.195312 327.160156 284.089844 327.203125 283.992188 C 327.234375 283.925781 327.234375 283.886719 327.234375 283.890625 C 327.234375 283.894531 327.230469 284.042969 327.421875 284.257812 L 327.4375 284.277344 L 327.441406 284.28125 L 327.421875 284.261719 C 330.933594 288.234375 333.484375 291.132812 334.140625 292.75 L 334.140625 292.746094 C 334.183594 292.855469 334.226562 292.976562 334.265625 293.101562 C 335 295.535156 334.855469 298.007812 333.007812 300.234375 C 332.800781 300.488281 332.539062 300.691406 332.242188 300.832031 C 330.011719 301.878906 327.539062 301.1875 325.316406 299.957031 L 328.480469 298.800781 C 327.707031 300.835938 325.609375 300.15625 325.488281 300.109375 C 325.167969 299.988281 324.917969 299.820312 324.792969 299.730469 C 323.800781 299.023438 321.429688 296.527344 317.925781 292.839844 C 317.542969 292.4375 317.308594 292.449219 317.082031 292.496094 L 317.078125 292.496094 C 317.078125 292.496094 317.078125 292.496094 317.074219 292.496094 L 317.078125 292.496094 C 317.214844 292.464844 317.4375 292.28125 317.492188 292.132812 C 317.492188 292.136719 317.46875 292.203125 317.453125 292.367188 L 317.398438 291.628906 L 319.226562 299.132812 C 319.269531 299.304688 319.289062 299.480469 319.289062 299.65625 C 319.292969 301.488281 319.097656 303.710938 317.769531 305.363281 C 314.996094 308.816406 310.230469 307.800781 306.046875 305.4375 C 302.25 303.292969 299.34375 299.332031 297.191406 294.269531 L 297.179688 294.238281 L 295.332031 289.882812 L 293.632812 285.882812 C 283.917969 262.988281 277.753906 248.535156 272.683594 237.816406 C 272.15625 236.703125 272.632812 235.375 273.746094 234.847656 C 274.863281 234.320312 276.191406 234.796875 276.71875 235.910156 C 281.835938 246.726562 288.039062 261.28125 297.742188 284.140625 L 299.441406 288.140625 L 301.289062 292.496094 L 301.285156 292.492188 L 301.300781 292.523438 L 301.300781 292.527344 C 303.25 297.117188 305.636719 300.082031 308.242188 301.554688 C 312.351562 303.878906 313.875 303.085938 314.289062 302.570312 C 314.574219 302.214844 314.832031 301.402344 314.828125 299.667969 L 314.890625 300.191406 L 313.0625 292.6875 C 313.003906 292.445312 312.984375 292.195312 313.007812 291.949219 C 313.050781 291.492188 313.140625 291.027344 313.308594 290.578125 C 313.796875 289.265625 314.8125 288.4375 316.082031 288.148438 L 316.085938 288.148438 C 316.121094 288.140625 316.148438 288.132812 316.1875 288.125 L 316.183594 288.125 C 317.851562 287.785156 319.667969 288.195312 321.164062 289.769531 C 324.9375 293.738281 326.847656 295.71875 327.378906 296.09375 C 327.414062 296.121094 327.296875 296.027344 327.074219 295.941406 L 327.078125 295.941406 C 327.078125 295.945312 325.058594 295.25 324.3125 297.214844 C 324.542969 296.609375 325.023438 296.132812 325.628906 295.910156 C 326.238281 295.691406 326.910156 295.742188 327.476562 296.054688 C 329.304688 297.066406 330.09375 296.910156 330.339844 296.796875 L 329.570312 297.390625 C 330.246094 296.574219 330.40625 295.753906 329.992188 294.386719 C 330 294.414062 330.007812 294.429688 330.007812 294.429688 L 330.007812 294.425781 C 329.722656 293.726562 327.976562 291.628906 324.078125 287.214844 L 324.0625 287.195312 L 324.058594 287.191406 L 324.074219 287.210938 C 323.140625 286.152344 322.714844 284.871094 322.777344 283.667969 C 322.800781 283.171875 322.910156 282.675781 323.109375 282.210938 L 323.109375 282.214844 C 323.195312 282.019531 323.304688 281.824219 323.441406 281.640625 C 324.277344 280.519531 325.535156 280.410156 326.28125 280.472656 C 328.695312 280.675781 332.863281 283.316406 338.070312 287.1875 L 337.457031 286.863281 C 338.410156 287.1875 338.816406 287.050781 338.972656 286.96875 C 339.257812 286.820312 339.351562 286.710938 339.367188 286.6875 C 339.371094 286.683594 339.371094 286.679688 339.375 286.679688 L 339.371094 286.679688 C 339.371094 286.683594 339.367188 286.691406 339.367188 286.695312 C 339.527344 285.960938 337.84375 282.914062 329.859375 276.898438 C 328.992188 276.246094 328.71875 275.066406 329.214844 274.101562 C 329.714844 273.125 331.054688 271.691406 333.089844 272.296875 C 336.835938 273.417969 338.828125 273.765625 339.742188 273.621094 C 341.046875 273.40625 341.570312 273.171875 341.683594 273.09375 C 341.691406 273.089844 341.242188 273.421875 341.257812 274.113281 C 341.261719 274.167969 341.28125 274.222656 341.292969 274.238281 C 341.292969 274.242188 341.257812 274.183594 341.132812 274.085938 L 341.234375 274.160156 L 318.261719 258.289062 C 318.230469 258.269531 318.199219 258.246094 318.167969 258.222656 C 315.21875 255.957031 311.601562 252.710938 307.324219 248.523438 C 304.90625 246.15625 302.25 243.515625 299.863281 240.339844 C 296.292969 235.597656 292.203125 230.8125 287.886719 225.988281 C 285.082031 222.859375 282.179688 219.710938 279.285156 216.570312 C 276.402344 213.445312 273.515625 210.3125 270.722656 207.195312 C 269.898438 206.277344 269.976562 204.867188 270.894531 204.046875 C 271.816406 203.222656 273.226562 203.300781 274.046875 204.21875 Z M 274.046875 204.21875 " fill-opacity="1" fill-rule="nonzero"/></g><path fill="#000000" d="M 164.144531 259.25 C 162.492188 261.351562 161.976562 262.617188 161.917969 263.175781 C 161.90625 263.269531 161.894531 263.359375 161.886719 263.4375 C 161.875 263.53125 161.863281 263.613281 161.855469 263.699219 C 161.832031 263.933594 161.816406 264.171875 161.835938 264.449219 C 162.101562 268.496094 162.234375 271.773438 162.09375 274.191406 C 161.949219 276.691406 161.503906 278.941406 160.695312 280.902344 C 160.109375 282.3125 159.308594 284.054688 157.886719 285.636719 C 149.878906 294.558594 146.128906 299.359375 145.648438 300.34375 C 143.53125 304.671875 141.945312 309.023438 141.492188 313.835938 C 141.375 315.0625 140.289062 315.964844 139.0625 315.847656 C 137.835938 315.734375 136.933594 314.644531 137.046875 313.417969 C 137.570312 307.867188 139.394531 302.972656 141.640625 298.386719 C 142.464844 296.699219 146.773438 291.335938 154.566406 282.65625 C 155.464844 281.65625 156.039062 280.488281 156.570312 279.199219 C 157.140625 277.8125 157.515625 276.078125 157.636719 273.933594 C 157.761719 271.820312 157.648438 268.792969 157.382812 264.742188 C 157.339844 264.128906 157.375 263.617188 157.417969 263.230469 C 157.429688 263.097656 157.445312 262.972656 157.457031 262.882812 C 157.46875 262.800781 157.476562 262.746094 157.480469 262.707031 C 157.679688 260.808594 158.910156 258.691406 160.632812 256.496094 C 161.394531 255.527344 162.796875 255.355469 163.765625 256.117188 C 164.734375 256.878906 164.90625 258.28125 164.144531 259.25 Z M 164.144531 259.25 " fill-opacity="1" fill-rule="nonzero"/><path fill="#000000" d="M 191.273438 265.289062 C 190.609375 265.289062 189.957031 265.582031 189.515625 266.140625 C 187.570312 268.621094 186.519531 270.691406 186.363281 272.359375 L 186.359375 272.359375 C 186.289062 272.835938 186.257812 273.464844 186.261719 274.246094 C 186.261719 274.300781 186.261719 274.359375 186.265625 274.414062 C 186.574219 278.355469 186.660156 281.40625 186.523438 283.566406 L 186.519531 283.589844 C 186.414062 285.65625 186.058594 287.402344 185.457031 288.835938 L 185.445312 288.859375 C 184.980469 290.007812 184.292969 291.179688 183.382812 292.375 C 175.53125 300.925781 171.242188 306.144531 170.503906 308.03125 C 170.492188 308.0625 170.480469 308.09375 170.472656 308.121094 L 170.46875 308.121094 C 167.953125 312.667969 166.441406 317.648438 165.929688 323.066406 C 165.816406 324.292969 166.71875 325.378906 167.945312 325.492188 C 168.015625 325.5 168.085938 325.503906 168.15625 325.503906 C 169.292969 325.503906 170.265625 324.636719 170.375 323.480469 C 170.832031 318.613281 172.199219 314.152344 174.472656 310.101562 C 174.554688 309.960938 174.617188 309.808594 174.664062 309.652344 C 175.199219 308.277344 179.230469 303.492188 186.753906 295.300781 C 186.800781 295.25 186.839844 295.199219 186.882812 295.148438 C 188.054688 293.617188 188.949219 292.089844 189.574219 290.558594 L 189.570312 290.558594 C 190.371094 288.65625 190.839844 286.417969 190.976562 283.847656 C 191.125 281.503906 191.042969 278.28125 190.726562 274.1875 L 190.722656 274.1875 C 190.722656 273.605469 190.742188 273.195312 190.78125 272.960938 C 190.792969 272.902344 190.800781 272.839844 190.804688 272.78125 C 190.875 271.988281 191.613281 270.695312 193.027344 268.894531 C 193.789062 267.925781 193.617188 266.523438 192.648438 265.761719 C 192.242188 265.441406 191.753906 265.289062 191.273438 265.289062 Z M 191.273438 265.289062 " fill-opacity="1" fill-rule="nonzero"/><path fill="#000000" d="M 138.179688 311.074219 C 137.671875 311.074219 137.160156 311.246094 136.742188 311.597656 C 136.367188 311.875 135.003906 312.714844 132.648438 314.128906 C 132.609375 314.152344 132.570312 314.175781 132.53125 314.203125 C 130.226562 315.78125 127.492188 317.558594 124.324219 319.535156 C 123.277344 320.1875 122.957031 321.566406 123.613281 322.609375 C 124.035156 323.289062 124.761719 323.660156 125.507812 323.660156 C 125.910156 323.660156 126.320312 323.550781 126.6875 323.320312 C 129.875 321.328125 132.640625 319.53125 134.980469 317.929688 C 137.523438 316.40625 139.023438 315.46875 139.480469 315.121094 C 139.53125 315.082031 139.574219 315.046875 139.617188 315.011719 C 140.558594 314.222656 140.679688 312.8125 139.886719 311.871094 C 139.445312 311.347656 138.816406 311.074219 138.179688 311.074219 Z M 138.179688 311.074219 " fill-opacity="1" fill-rule="nonzero"/><path fill="#000000" d="M 138.804688 310.945312 C 138.605469 310.945312 138.410156 310.96875 138.210938 311.023438 C 137.023438 311.351562 136.324219 312.578125 136.648438 313.765625 C 136.730469 314.054688 136.773438 314.296875 136.785156 314.492188 L 136.785156 314.527344 C 136.859375 315.660156 136.882812 316.519531 136.855469 317.105469 L 136.855469 317.125 C 136.839844 317.574219 136.804688 318.140625 136.746094 318.824219 L 136.109375 325.882812 C 136 327.109375 136.902344 328.191406 138.132812 328.304688 C 138.199219 328.308594 138.265625 328.3125 138.332031 328.3125 C 139.476562 328.3125 140.449219 327.441406 140.554688 326.28125 L 141.191406 319.214844 L 141.191406 319.210938 C 141.257812 318.457031 141.296875 317.820312 141.316406 317.296875 C 141.347656 316.554688 141.324219 315.550781 141.242188 314.273438 C 141.214844 313.753906 141.121094 313.191406 140.953125 312.585938 C 140.679688 311.59375 139.78125 310.945312 138.804688 310.945312 Z M 138.804688 310.945312 " fill-opacity="1" fill-rule="nonzero"/><path fill="#000000" d="M 139.550781 310.488281 C 139.164062 310.488281 138.773438 310.585938 138.414062 310.800781 C 137.355469 311.429688 137.007812 312.796875 137.636719 313.855469 C 140.695312 319.003906 143.402344 322.921875 145.765625 325.613281 C 146.207031 326.117188 146.824219 326.371094 147.445312 326.371094 C 147.96875 326.371094 148.492188 326.191406 148.917969 325.816406 C 149.84375 325.003906 149.933594 323.597656 149.121094 322.671875 C 146.941406 320.1875 144.390625 316.488281 141.472656 311.578125 C 141.054688 310.875 140.3125 310.488281 139.550781 310.488281 Z M 139.550781 310.488281 " fill-opacity="1" fill-rule="nonzero"/><path fill="#000000" d="M 167.472656 319.949219 C 166.742188 319.949219 166.027344 320.304688 165.597656 320.964844 C 165.449219 321.191406 165.222656 321.46875 164.910156 321.789062 L 160.914062 325.863281 L 154.703125 331.859375 C 153.816406 332.714844 153.792969 334.125 154.648438 335.011719 C 155.085938 335.464844 155.671875 335.691406 156.253906 335.691406 C 156.8125 335.691406 157.371094 335.484375 157.804688 335.066406 L 164.035156 329.050781 L 164.078125 329.011719 L 168.113281 324.894531 L 168.132812 324.878906 C 168.636719 324.351562 169.039062 323.855469 169.339844 323.394531 C 170.011719 322.359375 169.71875 320.980469 168.683594 320.308594 C 168.308594 320.066406 167.886719 319.949219 167.472656 319.949219 Z M 167.472656 319.949219 " fill-opacity="1" fill-rule="nonzero"/><path fill="#000000" d="M 168.945312 320.539062 C 168.863281 320.539062 168.78125 320.542969 168.699219 320.550781 C 167.484375 320.683594 166.609375 321.765625 166.738281 323.089844 L 166.734375 323.089844 C 166.753906 323.308594 166.757812 323.539062 166.746094 323.78125 C 166.726562 324.152344 166.652344 325.097656 166.519531 326.621094 C 166.476562 327.105469 166.425781 327.617188 166.367188 328.152344 C 165.9375 331.949219 165.707031 334.042969 165.679688 334.433594 C 165.679688 334.441406 165.679688 334.453125 165.679688 334.460938 C 165.601562 335.691406 166.539062 336.75 167.769531 336.824219 C 167.816406 336.824219 167.863281 336.828125 167.90625 336.828125 C 169.078125 336.828125 170.058594 335.917969 170.132812 334.734375 C 170.15625 334.410156 170.378906 332.382812 170.804688 328.644531 L 170.804688 328.632812 C 170.867188 328.066406 170.921875 327.527344 170.964844 327.007812 L 170.964844 327.003906 C 171.101562 325.425781 171.183594 324.421875 171.203125 323.996094 C 171.226562 323.488281 171.214844 322.996094 171.160156 322.523438 L 171.144531 322.402344 C 170.964844 321.324219 170.027344 320.539062 168.945312 320.539062 Z M 168.945312 320.539062 " fill-opacity="1" fill-rule="nonzero"/><g clip-path="url(#6f4bf8693f)"><path fill="#000000" d="M 169.894531 320.539062 C 169.746094 320.539062 169.59375 320.550781 169.441406 320.582031 C 168.234375 320.832031 167.457031 322.011719 167.660156 322.769531 L 167.707031 323.21875 C 167.734375 323.363281 167.777344 323.511719 167.828125 323.667969 C 167.929688 323.960938 168.078125 324.300781 168.28125 324.675781 C 168.308594 324.734375 168.339844 324.785156 168.382812 324.855469 C 169.113281 325.992188 169.527344 326.648438 169.628906 326.824219 C 170.542969 328.589844 171.242188 329.882812 171.722656 330.703125 L 171.726562 330.707031 C 172.710938 332.378906 173.839844 334.246094 175.113281 336.304688 C 175.535156 336.988281 176.265625 337.367188 177.011719 337.367188 C 177.414062 337.367188 177.816406 337.257812 178.183594 337.03125 C 179.230469 336.386719 179.558594 335.011719 178.910156 333.964844 C 177.65625 331.929688 176.542969 330.09375 175.574219 328.449219 C 175.136719 327.703125 174.484375 326.5 173.621094 324.832031 L 173.617188 324.832031 C 173.589844 324.769531 173.554688 324.707031 173.519531 324.640625 L 173.519531 324.636719 C 173.378906 324.394531 172.941406 323.691406 172.199219 322.535156 L 172.195312 322.535156 C 172.136719 322.421875 172.09375 322.335938 172.070312 322.273438 L 172.066406 322.273438 C 171.832031 321.242188 170.914062 320.539062 169.894531 320.539062 Z M 169.894531 320.539062 " fill-opacity="1" fill-rule="nonzero"/></g><g clip-path="url(#913fb847f0)"><path fill="#000000" d="M 49.429688 77.609375 C 49.097656 77.921875 48.863281 78.332031 48.769531 78.785156 C 48.640625 79.421875 48.792969 80.078125 49.1875 80.59375 C 48.324219 79.472656 48.402344 78.476562 49.425781 77.609375 Z M 44.28125 86.710938 C 44.972656 87.804688 44.761719 88.761719 43.644531 89.582031 C 44.324219 89.082031 44.664062 88.246094 44.523438 87.417969 C 44.484375 87.167969 44.398438 86.929688 44.28125 86.710938 Z M 53.179688 87.707031 C 54.363281 88.253906 54.761719 89.109375 54.371094 90.277344 C 54.640625 89.246094 54.136719 88.167969 53.175781 87.707031 Z M 54.042969 90.996094 C 53.648438 91.644531 53.09375 91.96875 52.382812 91.96875 C 52.269531 91.96875 52.148438 91.957031 52.023438 91.941406 L 52.027344 91.941406 C 52.089844 91.945312 52.152344 91.949219 52.214844 91.949219 C 52.945312 91.949219 53.628906 91.585938 54.039062 90.996094 Z M 64.976562 68.722656 C 64.484375 68.722656 63.988281 68.882812 63.578125 69.214844 C 62.535156 70.054688 57.964844 72.746094 49.863281 77.289062 C 49.78125 77.335938 49.703125 77.386719 49.628906 77.441406 L 49.625 77.441406 C 48.898438 77.847656 45.714844 79.429688 40.066406 82.1875 C 40.003906 82.21875 39.9375 82.253906 39.875 82.292969 C 39.269531 82.667969 38.78125 83.070312 38.414062 83.507812 C 37.855469 84.167969 37.5625 84.886719 37.527344 85.667969 C 37.527344 85.742188 37.527344 85.816406 37.53125 85.890625 C 37.582031 86.804688 37.960938 87.609375 38.667969 88.300781 C 39.296875 88.914062 40.207031 89.425781 41.398438 89.828125 C 41.527344 89.890625 41.664062 89.941406 41.808594 89.988281 C 42.59375 90.226562 45.929688 90.867188 51.820312 91.914062 C 51.863281 91.921875 51.902344 91.929688 51.941406 91.933594 C 52.871094 92.148438 57.472656 93.359375 65.738281 95.558594 C 65.929688 95.609375 66.121094 95.636719 66.3125 95.636719 C 67.300781 95.636719 68.203125 94.976562 68.46875 93.976562 C 68.785156 92.789062 68.078125 91.566406 66.886719 91.25 C 58.097656 88.910156 53.375 87.671875 52.71875 87.535156 C 52.605469 87.515625 52.496094 87.496094 52.390625 87.484375 L 52.386719 87.484375 C 47.191406 86.5625 44.15625 85.988281 43.277344 85.765625 L 43.273438 85.765625 C 43.210938 85.734375 43.144531 85.707031 43.074219 85.683594 C 48.453125 83.054688 51.433594 81.5625 52.019531 81.210938 C 52.082031 81.171875 52.140625 81.136719 52.195312 81.097656 L 52.191406 81.097656 C 60.417969 76.480469 65.148438 73.679688 66.375 72.691406 C 67.335938 71.917969 67.488281 70.515625 66.714844 69.554688 C 66.273438 69.007812 65.628906 68.722656 64.976562 68.722656 Z M 64.976562 68.722656 " fill-opacity="1" fill-rule="nonzero"/></g><path fill="#000000" d="M 89.972656 68.242188 C 88.351562 68.242188 86.714844 68.917969 85.066406 70.265625 L 85.03125 70.296875 C 83.585938 71.527344 82.847656 73.300781 82.816406 75.613281 C 82.792969 76.675781 82.992188 77.597656 83.40625 78.378906 C 83.753906 79.03125 84.238281 79.558594 84.855469 79.957031 C 85.320312 80.265625 85.863281 80.453125 86.488281 80.515625 L 86.484375 80.515625 C 86.636719 80.527344 86.789062 80.535156 86.953125 80.535156 C 87.675781 80.535156 88.535156 80.386719 89.523438 80.09375 C 89.589844 80.074219 89.652344 80.050781 89.714844 80.027344 C 91.148438 79.453125 92.230469 78.660156 92.960938 77.648438 L 92.957031 77.648438 C 93.984375 76.261719 94.398438 74.839844 94.195312 73.382812 C 94.1875 73.328125 94.179688 73.277344 94.167969 73.226562 C 94.15625 73.167969 94.140625 73.109375 94.128906 73.050781 C 93.925781 72.25 93.558594 71.609375 93.03125 71.125 C 93.03125 71.121094 93.03125 71.121094 93.03125 71.117188 C 93.328125 69.921875 92.59375 68.714844 91.398438 68.417969 C 90.925781 68.300781 90.449219 68.242188 89.972656 68.242188 Z M 89.972656 68.242188 " fill-opacity="1" fill-rule="nonzero"/></svg>