<svg xmlns="http://www.w3.org/2000/svg" xmlns:xlink="http://www.w3.org/1999/xlink" width="500" zoomAndPan="magnify" viewBox="0 0 375 374.999991" height="500" preserveAspectRatio="xMidYMid meet" version="1.0"><defs><g/></defs><g fill="#121212" fill-opacity="1"><g transform="translate(18.408539, 159.645225)"><g><path d="M 37.59375 0 L 2.40625 0 L 2.40625 -60.21875 L 35.359375 -60.21875 C 39.828125 -60.21875 43.753906 -59.65625 47.140625 -58.53125 C 50.523438 -57.414062 53.175781 -55.738281 55.09375 -53.5 C 57.019531 -51.269531 57.984375 -48.460938 57.984375 -45.078125 C 57.984375 -40.835938 56.421875 -37.507812 53.296875 -35.09375 C 50.171875 -32.6875 45.738281 -31.484375 40 -31.484375 L 40 -30.109375 C 46.476562 -30.109375 51.46875 -29.003906 54.96875 -26.796875 C 58.46875 -24.585938 60.21875 -21.160156 60.21875 -16.515625 C 60.21875 -11.359375 58.179688 -7.316406 54.109375 -4.390625 C 50.035156 -1.460938 44.53125 0 37.59375 0 Z M 21.9375 -37.859375 L 21.9375 -32.515625 L 33.296875 -32.515625 C 34.785156 -32.515625 35.957031 -32.726562 36.8125 -33.15625 C 37.675781 -33.59375 38.109375 -34.269531 38.109375 -35.1875 C 38.109375 -36.101562 37.632812 -36.773438 36.6875 -37.203125 C 35.738281 -37.640625 34.519531 -37.859375 33.03125 -37.859375 Z M 21.9375 -28.390625 L 21.9375 -22.546875 L 34.0625 -22.546875 C 37.394531 -22.546875 39.0625 -23.519531 39.0625 -25.46875 C 39.0625 -27.414062 37.394531 -28.390625 34.0625 -28.390625 Z M 21.9375 -28.390625 "/></g></g></g><g fill="#121212" fill-opacity="1"><g transform="translate(79.393528, 159.645225)"><g><path d="M 32.78125 1.296875 C 26.695312 1.296875 21.300781 0.09375 16.59375 -2.3125 C 11.894531 -4.726562 8.210938 -8.269531 5.546875 -12.9375 C 2.878906 -17.613281 1.546875 -23.367188 1.546875 -30.203125 C 1.546875 -37.023438 2.878906 -42.757812 5.546875 -47.40625 C 8.210938 -52.050781 11.894531 -55.5625 16.59375 -57.9375 C 21.300781 -60.320312 26.695312 -61.515625 32.78125 -61.515625 C 38.851562 -61.515625 44.238281 -60.320312 48.9375 -57.9375 C 53.644531 -55.5625 57.332031 -52.050781 60 -47.40625 C 62.664062 -42.757812 64 -37.023438 64 -30.203125 C 64 -23.367188 62.664062 -17.613281 60 -12.9375 C 57.332031 -8.269531 53.644531 -4.726562 48.9375 -2.3125 C 44.238281 0.09375 38.851562 1.296875 32.78125 1.296875 Z M 32.78125 -24.265625 C 36.21875 -24.265625 38.984375 -24.78125 41.078125 -25.8125 C 43.171875 -26.84375 44.21875 -28.273438 44.21875 -30.109375 C 44.21875 -31.941406 43.171875 -33.375 41.078125 -34.40625 C 38.984375 -35.445312 36.21875 -35.96875 32.78125 -35.96875 C 29.28125 -35.96875 26.492188 -35.445312 24.421875 -34.40625 C 22.359375 -33.375 21.328125 -31.941406 21.328125 -30.109375 C 21.328125 -28.273438 22.359375 -26.84375 24.421875 -25.8125 C 26.492188 -24.78125 29.28125 -24.265625 32.78125 -24.265625 Z M 32.78125 -24.265625 "/></g></g></g><g fill="#121212" fill-opacity="1"><g transform="translate(144.593284, 159.645225)"><g><path d="M 32.78125 1.296875 C 26.695312 1.296875 21.300781 0.09375 16.59375 -2.3125 C 11.894531 -4.726562 8.210938 -8.269531 5.546875 -12.9375 C 2.878906 -17.613281 1.546875 -23.367188 1.546875 -30.203125 C 1.546875 -37.023438 2.878906 -42.757812 5.546875 -47.40625 C 8.210938 -52.050781 11.894531 -55.5625 16.59375 -57.9375 C 21.300781 -60.320312 26.695312 -61.515625 32.78125 -61.515625 C 38.851562 -61.515625 44.238281 -60.320312 48.9375 -57.9375 C 53.644531 -55.5625 57.332031 -52.050781 60 -47.40625 C 62.664062 -42.757812 64 -37.023438 64 -30.203125 C 64 -23.367188 62.664062 -17.613281 60 -12.9375 C 57.332031 -8.269531 53.644531 -4.726562 48.9375 -2.3125 C 44.238281 0.09375 38.851562 1.296875 32.78125 1.296875 Z M 32.78125 -24.265625 C 36.21875 -24.265625 38.984375 -24.78125 41.078125 -25.8125 C 43.171875 -26.84375 44.21875 -28.273438 44.21875 -30.109375 C 44.21875 -31.941406 43.171875 -33.375 41.078125 -34.40625 C 38.984375 -35.445312 36.21875 -35.96875 32.78125 -35.96875 C 29.28125 -35.96875 26.492188 -35.445312 24.421875 -34.40625 C 22.359375 -33.375 21.328125 -31.941406 21.328125 -30.109375 C 21.328125 -28.273438 22.359375 -26.84375 24.421875 -25.8125 C 26.492188 -24.78125 29.28125 -24.265625 32.78125 -24.265625 Z M 32.78125 -24.265625 "/></g></g></g><g fill="#121212" fill-opacity="1"><g transform="translate(209.79304, 159.645225)"><g><path d="M 22.546875 -17.375 L 25.125 0 L 2.40625 0 L 2.40625 -60.21875 L 23.65625 -60.21875 L 21.59375 -32 L 22.71875 -32 L 28.46875 -60.21875 L 59.109375 -60.21875 L 27.953125 -30.71875 L 28.90625 -29.59375 C 29.65625 -30.457031 30.546875 -31.414062 31.578125 -32.46875 C 32.609375 -33.53125 33.828125 -34.445312 35.234375 -35.21875 C 36.640625 -36 38.226562 -36.390625 40 -36.390625 C 44.707031 -36.390625 48.550781 -34.851562 51.53125 -31.78125 C 54.507812 -28.71875 56.570312 -24.445312 57.71875 -18.96875 C 58.875 -13.488281 59.050781 -7.164062 58.25 0 L 33.375 0 C 34.125 -2.925781 34.65625 -5.960938 34.96875 -9.109375 C 35.28125 -12.265625 35.28125 -15.207031 34.96875 -17.9375 C 34.65625 -20.664062 33.953125 -22.859375 32.859375 -24.515625 C 31.773438 -26.179688 30.195312 -27.015625 28.125 -27.015625 C 25.832031 -27.015625 24.210938 -26.082031 23.265625 -24.21875 C 22.328125 -22.351562 22.085938 -20.070312 22.546875 -17.375 Z M 22.546875 -17.375 "/></g></g></g><g fill="#121212" fill-opacity="1"><g transform="translate(18.408539, 226.39522)"><g><path d="M 27.703125 -12.390625 L 26.0625 0 L -1.03125 0 L 19.4375 -60.21875 L 43.875 -60.21875 L 64.34375 0 L 37.421875 0 L 35.78125 -12.390625 Z M 32.4375 -37.59375 L 30.96875 -37.59375 L 28.828125 -18.921875 L 34.5 -18.921875 Z M 32.4375 -37.59375 "/></g></g></g><g fill="#121212" fill-opacity="1"><g transform="translate(18.408539, 293.145216)"><g><path d="M 53.59375 -60.21875 L 53.859375 -33.640625 L 35.09375 -34.5 L 39.234375 0 L 16.171875 0 L 20.21875 -34.5 L 1.546875 -33.640625 L 1.71875 -60.21875 Z M 53.59375 -60.21875 "/></g></g></g><g fill="#121212" fill-opacity="1"><g transform="translate(73.458462, 293.145216)"><g><path d="M 27.703125 -12.390625 L 26.0625 0 L -1.03125 0 L 19.4375 -60.21875 L 43.875 -60.21875 L 64.34375 0 L 37.421875 0 L 35.78125 -12.390625 Z M 32.4375 -37.59375 L 30.96875 -37.59375 L 28.828125 -18.921875 L 34.5 -18.921875 Z M 32.4375 -37.59375 "/></g></g></g><g fill="#121212" fill-opacity="1"><g transform="translate(136.421813, 293.145216)"><g><path d="M 37.59375 0 L 2.40625 0 L 2.40625 -60.21875 L 35.359375 -60.21875 C 39.828125 -60.21875 43.753906 -59.65625 47.140625 -58.53125 C 50.523438 -57.414062 53.175781 -55.738281 55.09375 -53.5 C 57.019531 -51.269531 57.984375 -48.460938 57.984375 -45.078125 C 57.984375 -40.835938 56.421875 -37.507812 53.296875 -35.09375 C 50.171875 -32.6875 45.738281 -31.484375 40 -31.484375 L 40 -30.109375 C 46.476562 -30.109375 51.46875 -29.003906 54.96875 -26.796875 C 58.46875 -24.585938 60.21875 -21.160156 60.21875 -16.515625 C 60.21875 -11.359375 58.179688 -7.316406 54.109375 -4.390625 C 50.035156 -1.460938 44.53125 0 37.59375 0 Z M 21.9375 -37.859375 L 21.9375 -32.515625 L 33.296875 -32.515625 C 34.785156 -32.515625 35.957031 -32.726562 36.8125 -33.15625 C 37.675781 -33.59375 38.109375 -34.269531 38.109375 -35.1875 C 38.109375 -36.101562 37.632812 -36.773438 36.6875 -37.203125 C 35.738281 -37.640625 34.519531 -37.859375 33.03125 -37.859375 Z M 21.9375 -28.390625 L 21.9375 -22.546875 L 34.0625 -22.546875 C 37.394531 -22.546875 39.0625 -23.519531 39.0625 -25.46875 C 39.0625 -27.414062 37.394531 -28.390625 34.0625 -28.390625 Z M 21.9375 -28.390625 "/></g></g></g><g fill="#121212" fill-opacity="1"><g transform="translate(197.406802, 293.145216)"><g><path d="M 21.765625 -24.4375 L 51.625 -25.640625 L 51.625 0 L 2.40625 0 L 2.40625 -60.21875 L 23.921875 -60.21875 Z M 21.765625 -24.4375 "/></g></g></g><g fill="#121212" fill-opacity="1"><g transform="translate(250.220321, 293.145216)"><g><path d="M 52.390625 -36.046875 L 21.859375 -36.90625 L 21.859375 -33.375 L 44.390625 -34.234375 L 44.390625 -26.5 L 21.859375 -27.359375 L 21.859375 -23.65625 L 54.28125 -25.203125 L 54.28125 0 L 2.40625 0 L 2.40625 -60.21875 L 52.390625 -60.21875 Z M 52.390625 -36.046875 "/></g></g></g></svg>