<svg xmlns="http://www.w3.org/2000/svg" xmlns:xlink="http://www.w3.org/1999/xlink" width="500" zoomAndPan="magnify" viewBox="0 0 375 374.999991" height="500" preserveAspectRatio="xMidYMid meet" version="1.0"><defs><g/></defs><g fill="#121212" fill-opacity="1"><g transform="translate(18.408539, 159.645172)"><g><path d="M 37.59375 0 L 2.40625 0 L 2.40625 -60.21875 L 35.359375 -60.21875 C 39.828125 -60.21875 43.753906 -59.65625 47.140625 -58.53125 C 50.523438 -57.414062 53.175781 -55.738281 55.09375 -53.5 C 57.019531 -51.269531 57.984375 -48.460938 57.984375 -45.078125 C 57.984375 -40.835938 56.421875 -37.507812 53.296875 -35.09375 C 50.171875 -32.6875 45.738281 -31.484375 40 -31.484375 L 40 -30.109375 C 46.476562 -30.109375 51.46875 -29.003906 54.96875 -26.796875 C 58.46875 -24.585938 60.21875 -21.160156 60.21875 -16.515625 C 60.21875 -11.359375 58.179688 -7.316406 54.109375 -4.390625 C 50.035156 -1.460938 44.53125 0 37.59375 0 Z M 21.9375 -37.859375 L 21.9375 -32.515625 L 33.296875 -32.515625 C 34.785156 -32.515625 35.957031 -32.726562 36.8125 -33.15625 C 37.675781 -33.59375 38.109375 -34.269531 38.109375 -35.1875 C 38.109375 -36.101562 37.632812 -36.773438 36.6875 -37.203125 C 35.738281 -37.640625 34.519531 -37.859375 33.03125 -37.859375 Z M 21.9375 -28.390625 L 21.9375 -22.546875 L 34.0625 -22.546875 C 37.394531 -22.546875 39.0625 -23.519531 39.0625 -25.46875 C 39.0625 -27.414062 37.394531 -28.390625 34.0625 -28.390625 Z M 21.9375 -28.390625 "/></g></g></g><g fill="#121212" fill-opacity="1"><g transform="translate(79.393528, 159.645172)"><g><path d="M 1.71875 -34.0625 L 1.71875 -60.21875 L 49.546875 -60.21875 L 49.546875 -34.0625 L 34.328125 -35.265625 L 34.578125 -24.953125 L 49.546875 -26.15625 L 49.546875 0 L 1.71875 0 L 1.71875 -26.15625 L 16.6875 -24.953125 L 16.953125 -35.265625 Z M 1.71875 -34.0625 "/></g></g></g><g fill="#121212" fill-opacity="1"><g transform="translate(130.314697, 159.645172)"><g><path d="M 28.125 -23.578125 L 22.03125 -23.578125 L 24.34375 0 L 2.40625 0 L 2.40625 -60.21875 L 33.546875 -60.21875 C 38.484375 -60.164062 42.859375 -59.5625 46.671875 -58.40625 C 50.484375 -57.257812 53.460938 -55.394531 55.609375 -52.8125 C 57.765625 -50.238281 58.84375 -46.710938 58.84375 -42.234375 C 58.84375 -37.703125 56.820312 -34.015625 52.78125 -31.171875 C 48.738281 -28.335938 42.613281 -26.921875 34.40625 -26.921875 L 34.40625 -25.890625 L 39.75 -25.890625 C 44.445312 -25.890625 48.316406 -24.800781 51.359375 -22.625 C 54.398438 -20.445312 56.578125 -17.421875 57.890625 -13.546875 C 59.210938 -9.679688 59.585938 -5.164062 59.015625 0 L 34.328125 0 C 35.015625 -2.863281 35.425781 -5.6875 35.5625 -8.46875 C 35.707031 -11.25 35.566406 -13.785156 35.140625 -16.078125 C 34.710938 -18.378906 33.925781 -20.203125 32.78125 -21.546875 C 31.632812 -22.898438 30.082031 -23.578125 28.125 -23.578125 Z M 32.34375 -35.703125 L 22.03125 -35.703125 L 22.03125 -29.765625 L 32.265625 -29.765625 C 34.265625 -29.765625 35.867188 -30.007812 37.078125 -30.5 C 38.285156 -30.988281 38.890625 -31.71875 38.890625 -32.6875 C 38.890625 -33.832031 38.269531 -34.617188 37.03125 -35.046875 C 35.800781 -35.484375 34.238281 -35.703125 32.34375 -35.703125 Z M 32.34375 -35.703125 "/></g></g></g><g fill="#121212" fill-opacity="1"><g transform="translate(190.525551, 159.645172)"><g><path d="M 28.5625 0 L 2.40625 0 L 2.40625 -60.21875 L 28.5625 -60.21875 C 35.15625 -60.21875 40.832031 -59.070312 45.59375 -56.78125 C 50.351562 -54.488281 54.035156 -51.117188 56.640625 -46.671875 C 59.253906 -42.222656 60.5625 -36.734375 60.5625 -30.203125 C 60.5625 -23.660156 59.253906 -18.148438 56.640625 -13.671875 C 54.035156 -9.203125 50.351562 -5.804688 45.59375 -3.484375 C 40.832031 -1.160156 35.15625 0 28.5625 0 Z M 31.140625 -34.84375 L 22.109375 -34.84375 L 22.109375 -25.46875 L 31.140625 -25.46875 C 34.117188 -25.46875 36.484375 -25.835938 38.234375 -26.578125 C 39.984375 -27.328125 40.859375 -28.503906 40.859375 -30.109375 C 40.859375 -31.710938 39.984375 -32.898438 38.234375 -33.671875 C 36.484375 -34.453125 34.117188 -34.84375 31.140625 -34.84375 Z M 31.140625 -34.84375 "/></g></g></g><g fill="#121212" fill-opacity="1"><g transform="translate(18.408539, 226.395168)"><g><path d="M 31.75 1.375 C 25.78125 1.375 20.488281 0.671875 15.875 -0.734375 C 11.257812 -2.140625 7.660156 -4.21875 5.078125 -6.96875 C 2.492188 -9.71875 1.203125 -13.101562 1.203125 -17.125 C 1.203125 -19.925781 1.914062 -22.34375 3.34375 -24.375 C 4.78125 -26.414062 6.628906 -28.023438 8.890625 -29.203125 C 11.160156 -30.378906 13.53125 -31.082031 16 -31.3125 L 16 -32.171875 C 12.613281 -32.804688 9.703125 -34.296875 7.265625 -36.640625 C 4.828125 -38.992188 3.609375 -42.007812 3.609375 -45.6875 C 3.609375 -49.125 4.785156 -52.003906 7.140625 -54.328125 C 9.492188 -56.648438 12.820312 -58.410156 17.125 -59.609375 C 21.425781 -60.816406 26.472656 -61.421875 32.265625 -61.421875 C 35.078125 -61.421875 37.65625 -61.289062 40 -61.03125 C 42.351562 -60.78125 44.25 -60.566406 45.6875 -60.390625 L 45.6875 -40.609375 C 44.476562 -40.773438 42.957031 -40.941406 41.125 -41.109375 C 39.289062 -41.285156 37.28125 -41.375 35.09375 -41.375 C 31.257812 -41.375 28.335938 -41.101562 26.328125 -40.5625 C 24.316406 -40.019531 23.3125 -39.0625 23.3125 -37.6875 C 23.3125 -35.101562 26.296875 -33.8125 32.265625 -33.8125 L 33.71875 -33.8125 L 33.71875 -27.4375 L 30.625 -27.4375 C 24.375 -27.4375 21.25 -26.035156 21.25 -23.234375 C 21.25 -21.679688 22.28125 -20.546875 24.34375 -19.828125 C 26.40625 -19.109375 29.703125 -18.75 34.234375 -18.75 C 34.804688 -18.75 35.351562 -18.765625 35.875 -18.796875 C 36.394531 -18.828125 36.941406 -18.867188 37.515625 -18.921875 L 37.515625 -33.8125 L 63.3125 -33.8125 L 63.3125 -27.4375 L 56.609375 -27.4375 L 56.609375 -1.296875 C 55.234375 -0.890625 53.5 -0.523438 51.40625 -0.203125 C 49.3125 0.109375 47.070312 0.378906 44.6875 0.609375 C 42.3125 0.835938 39.988281 1.019531 37.71875 1.15625 C 35.457031 1.300781 33.46875 1.375 31.75 1.375 Z M 31.75 1.375 "/></g></g></g><g fill="#121212" fill-opacity="1"><g transform="translate(82.834159, 226.395168)"><g/></g></g><g fill="#121212" fill-opacity="1"><g transform="translate(101.069415, 226.395168)"><g><path d="M 37.59375 0 L 2.40625 0 L 2.40625 -60.21875 L 35.359375 -60.21875 C 39.828125 -60.21875 43.753906 -59.65625 47.140625 -58.53125 C 50.523438 -57.414062 53.175781 -55.738281 55.09375 -53.5 C 57.019531 -51.269531 57.984375 -48.460938 57.984375 -45.078125 C 57.984375 -40.835938 56.421875 -37.507812 53.296875 -35.09375 C 50.171875 -32.6875 45.738281 -31.484375 40 -31.484375 L 40 -30.109375 C 46.476562 -30.109375 51.46875 -29.003906 54.96875 -26.796875 C 58.46875 -24.585938 60.21875 -21.160156 60.21875 -16.515625 C 60.21875 -11.359375 58.179688 -7.316406 54.109375 -4.390625 C 50.035156 -1.460938 44.53125 0 37.59375 0 Z M 21.9375 -37.859375 L 21.9375 -32.515625 L 33.296875 -32.515625 C 34.785156 -32.515625 35.957031 -32.726562 36.8125 -33.15625 C 37.675781 -33.59375 38.109375 -34.269531 38.109375 -35.1875 C 38.109375 -36.101562 37.632812 -36.773438 36.6875 -37.203125 C 35.738281 -37.640625 34.519531 -37.859375 33.03125 -37.859375 Z M 21.9375 -28.390625 L 21.9375 -22.546875 L 34.0625 -22.546875 C 37.394531 -22.546875 39.0625 -23.519531 39.0625 -25.46875 C 39.0625 -27.414062 37.394531 -28.390625 34.0625 -28.390625 Z M 21.9375 -28.390625 "/></g></g></g><g fill="#121212" fill-opacity="1"><g transform="translate(162.054404, 226.395168)"><g><path d="M 28.125 -23.578125 L 22.03125 -23.578125 L 24.34375 0 L 2.40625 0 L 2.40625 -60.21875 L 33.546875 -60.21875 C 38.484375 -60.164062 42.859375 -59.5625 46.671875 -58.40625 C 50.484375 -57.257812 53.460938 -55.394531 55.609375 -52.8125 C 57.765625 -50.238281 58.84375 -46.710938 58.84375 -42.234375 C 58.84375 -37.703125 56.820312 -34.015625 52.78125 -31.171875 C 48.738281 -28.335938 42.613281 -26.921875 34.40625 -26.921875 L 34.40625 -25.890625 L 39.75 -25.890625 C 44.445312 -25.890625 48.316406 -24.800781 51.359375 -22.625 C 54.398438 -20.445312 56.578125 -17.421875 57.890625 -13.546875 C 59.210938 -9.679688 59.585938 -5.164062 59.015625 0 L 34.328125 0 C 35.015625 -2.863281 35.425781 -5.6875 35.5625 -8.46875 C 35.707031 -11.25 35.566406 -13.785156 35.140625 -16.078125 C 34.710938 -18.378906 33.925781 -20.203125 32.78125 -21.546875 C 31.632812 -22.898438 30.082031 -23.578125 28.125 -23.578125 Z M 32.34375 -35.703125 L 22.03125 -35.703125 L 22.03125 -29.765625 L 32.265625 -29.765625 C 34.265625 -29.765625 35.867188 -30.007812 37.078125 -30.5 C 38.285156 -30.988281 38.890625 -31.71875 38.890625 -32.6875 C 38.890625 -33.832031 38.269531 -34.617188 37.03125 -35.046875 C 35.800781 -35.484375 34.238281 -35.703125 32.34375 -35.703125 Z M 32.34375 -35.703125 "/></g></g></g><g fill="#121212" fill-opacity="1"><g transform="translate(222.265246, 226.395168)"><g><path d="M 52.390625 -36.046875 L 21.859375 -36.90625 L 21.859375 -33.375 L 44.390625 -34.234375 L 44.390625 -26.5 L 21.859375 -27.359375 L 21.859375 -23.65625 L 54.28125 -25.203125 L 54.28125 0 L 2.40625 0 L 2.40625 -60.21875 L 52.390625 -60.21875 Z M 52.390625 -36.046875 "/></g></g></g><g fill="#121212" fill-opacity="1"><g transform="translate(277.831274, 226.395168)"><g><path d="M 67.28125 0 L 43.53125 0 L 39.140625 -34.328125 L 38.03125 -34.328125 L 33.640625 0 L 9.984375 0 L 0 -60.21875 L 26.0625 -60.21875 L 24.859375 -25.03125 L 26.0625 -24.859375 L 33.203125 -57.03125 L 43.96875 -57.03125 L 51.1875 -24.859375 L 52.390625 -25.03125 L 51.1875 -60.21875 L 77.25 -60.21875 Z M 67.28125 0 "/></g></g></g></svg>