<svg xmlns="http://www.w3.org/2000/svg" xmlns:xlink="http://www.w3.org/1999/xlink" width="500" zoomAndPan="magnify" viewBox="0 0 375 374.999991" height="500" preserveAspectRatio="xMidYMid meet" version="1.0"><defs><g/><clipPath id="721c84c96b"><rect x="0" width="271" y="0" height="137"/></clipPath></defs><g transform="matrix(1, 0, 0, 1, 49, 119)"><g clip-path="url(#721c84c96b)"><g fill="#121212" fill-opacity="1"><g transform="translate(0.871123, 69.666297)"><g><path d="M 29.984375 0 L 1.921875 0 L 1.921875 -48.03125 L 28.203125 -48.03125 C 31.765625 -48.03125 34.894531 -47.582031 37.59375 -46.6875 C 40.289062 -45.789062 42.40625 -44.453125 43.9375 -42.671875 C 45.476562 -40.890625 46.25 -38.648438 46.25 -35.953125 C 46.25 -32.566406 45 -29.910156 42.5 -27.984375 C 40.007812 -26.066406 36.476562 -25.109375 31.90625 -25.109375 L 31.90625 -24.015625 C 37.070312 -24.015625 41.050781 -23.132812 43.84375 -21.375 C 46.632812 -19.613281 48.03125 -16.878906 48.03125 -13.171875 C 48.03125 -9.054688 46.40625 -5.832031 43.15625 -3.5 C 39.90625 -1.164062 35.515625 0 29.984375 0 Z M 17.5 -30.1875 L 17.5 -25.9375 L 26.546875 -25.9375 C 27.734375 -25.9375 28.671875 -26.109375 29.359375 -26.453125 C 30.046875 -26.796875 30.390625 -27.332031 30.390625 -28.0625 C 30.390625 -28.789062 30.007812 -29.328125 29.25 -29.671875 C 28.5 -30.015625 27.53125 -30.1875 26.34375 -30.1875 Z M 17.5 -22.640625 L 17.5 -17.96875 L 27.171875 -17.96875 C 29.828125 -17.96875 31.15625 -18.75 31.15625 -20.3125 C 31.15625 -21.863281 29.828125 -22.640625 27.171875 -22.640625 Z M 17.5 -22.640625 "/></g></g></g><g fill="#121212" fill-opacity="1"><g transform="translate(49.503908, 69.666297)"><g><path d="M 1.375 -27.171875 L 1.375 -48.03125 L 39.515625 -48.03125 L 39.515625 -27.171875 L 27.375 -28.125 L 27.578125 -19.890625 L 39.515625 -20.859375 L 39.515625 0 L 1.375 0 L 1.375 -20.859375 L 13.3125 -19.890625 L 13.515625 -28.125 Z M 1.375 -27.171875 "/></g></g></g><g fill="#121212" fill-opacity="1"><g transform="translate(90.111248, 69.666297)"><g><path d="M 22.4375 -18.796875 L 17.5625 -18.796875 L 19.421875 0 L 1.921875 0 L 1.921875 -48.03125 L 26.75 -48.03125 C 30.6875 -47.976562 34.175781 -47.492188 37.21875 -46.578125 C 40.257812 -45.671875 42.632812 -44.1875 44.34375 -42.125 C 46.0625 -40.0625 46.921875 -37.25 46.921875 -33.6875 C 46.921875 -30.070312 45.304688 -27.128906 42.078125 -24.859375 C 38.859375 -22.597656 33.976562 -21.46875 27.4375 -21.46875 L 27.4375 -20.65625 L 31.703125 -20.65625 C 35.453125 -20.65625 38.535156 -19.785156 40.953125 -18.046875 C 43.378906 -16.304688 45.117188 -13.890625 46.171875 -10.796875 C 47.222656 -7.710938 47.519531 -4.113281 47.0625 0 L 27.375 0 C 27.925781 -2.289062 28.257812 -4.539062 28.375 -6.75 C 28.488281 -8.96875 28.375 -10.992188 28.03125 -12.828125 C 27.6875 -14.660156 27.054688 -16.113281 26.140625 -17.1875 C 25.222656 -18.257812 23.988281 -18.796875 22.4375 -18.796875 Z M 25.796875 -28.46875 L 17.5625 -28.46875 L 17.5625 -23.734375 L 25.734375 -23.734375 C 27.328125 -23.734375 28.601562 -23.925781 29.5625 -24.3125 C 30.53125 -24.707031 31.015625 -25.296875 31.015625 -26.078125 C 31.015625 -26.984375 30.519531 -27.609375 29.53125 -27.953125 C 28.550781 -28.296875 27.304688 -28.46875 25.796875 -28.46875 Z M 25.796875 -28.46875 "/></g></g></g><g fill="#121212" fill-opacity="1"><g transform="translate(138.126691, 69.666297)"><g><path d="M 22.78125 0 L 1.921875 0 L 1.921875 -48.03125 L 22.78125 -48.03125 C 28.039062 -48.03125 32.566406 -47.113281 36.359375 -45.28125 C 40.160156 -43.445312 43.097656 -40.757812 45.171875 -37.21875 C 47.253906 -33.675781 48.296875 -29.296875 48.296875 -24.078125 C 48.296875 -18.867188 47.253906 -14.476562 45.171875 -10.90625 C 43.097656 -7.34375 40.160156 -4.632812 36.359375 -2.78125 C 32.566406 -0.925781 28.039062 0 22.78125 0 Z M 24.84375 -27.78125 L 17.625 -27.78125 L 17.625 -20.3125 L 24.84375 -20.3125 C 27.21875 -20.3125 29.101562 -20.609375 30.5 -21.203125 C 31.894531 -21.796875 32.59375 -22.734375 32.59375 -24.015625 C 32.59375 -25.296875 31.894531 -26.242188 30.5 -26.859375 C 29.101562 -27.472656 27.21875 -27.78125 24.84375 -27.78125 Z M 24.84375 -27.78125 "/></g></g></g><g fill="#121212" fill-opacity="1"><g transform="translate(187.389167, 69.666297)"><g/></g></g><g fill="#121212" fill-opacity="1"><g transform="translate(0.871123, 122.150124)"><g><path d="M 25.3125 1.09375 C 20.5625 1.09375 16.34375 0.535156 12.65625 -0.578125 C 8.976562 -1.703125 6.109375 -3.359375 4.046875 -5.546875 C 1.984375 -7.742188 0.953125 -10.445312 0.953125 -13.65625 C 0.953125 -15.894531 1.523438 -17.828125 2.671875 -19.453125 C 3.816406 -21.078125 5.289062 -22.359375 7.09375 -23.296875 C 8.90625 -24.234375 10.796875 -24.789062 12.765625 -24.96875 L 12.765625 -25.65625 C 10.066406 -26.164062 7.742188 -27.359375 5.796875 -29.234375 C 3.847656 -31.109375 2.875 -33.507812 2.875 -36.4375 C 2.875 -39.175781 3.8125 -41.472656 5.6875 -43.328125 C 7.5625 -45.179688 10.210938 -46.585938 13.640625 -47.546875 C 17.078125 -48.503906 21.109375 -48.984375 25.734375 -48.984375 C 27.972656 -48.984375 30.03125 -48.878906 31.90625 -48.671875 C 33.78125 -48.472656 35.289062 -48.300781 36.4375 -48.15625 L 36.4375 -32.390625 C 35.46875 -32.523438 34.25 -32.660156 32.78125 -32.796875 C 31.320312 -32.929688 29.726562 -33 28 -33 C 24.925781 -33 22.585938 -32.78125 20.984375 -32.34375 C 19.390625 -31.914062 18.59375 -31.148438 18.59375 -30.046875 C 18.59375 -27.992188 20.972656 -26.96875 25.734375 -26.96875 L 26.890625 -26.96875 L 26.890625 -21.890625 L 24.421875 -21.890625 C 19.441406 -21.890625 16.953125 -20.769531 16.953125 -18.53125 C 16.953125 -17.289062 17.773438 -16.382812 19.421875 -15.8125 C 21.066406 -15.238281 23.695312 -14.953125 27.3125 -14.953125 C 27.769531 -14.953125 28.203125 -14.960938 28.609375 -14.984375 C 29.023438 -15.015625 29.457031 -15.050781 29.90625 -15.09375 L 29.90625 -26.96875 L 50.5 -26.96875 L 50.5 -21.890625 L 45.140625 -21.890625 L 45.140625 -1.03125 C 44.046875 -0.707031 42.660156 -0.421875 40.984375 -0.171875 C 39.316406 0.078125 37.535156 0.289062 35.640625 0.46875 C 33.742188 0.65625 31.890625 0.804688 30.078125 0.921875 C 28.273438 1.035156 26.6875 1.09375 25.3125 1.09375 Z M 25.3125 1.09375 "/></g></g></g><g fill="#121212" fill-opacity="1"><g transform="translate(52.247655, 122.150124)"><g/></g></g><g fill="#121212" fill-opacity="1"><g transform="translate(66.789426, 122.150124)"><g><path d="M 29.984375 0 L 1.921875 0 L 1.921875 -48.03125 L 28.203125 -48.03125 C 31.765625 -48.03125 34.894531 -47.582031 37.59375 -46.6875 C 40.289062 -45.789062 42.40625 -44.453125 43.9375 -42.671875 C 45.476562 -40.890625 46.25 -38.648438 46.25 -35.953125 C 46.25 -32.566406 45 -29.910156 42.5 -27.984375 C 40.007812 -26.066406 36.476562 -25.109375 31.90625 -25.109375 L 31.90625 -24.015625 C 37.070312 -24.015625 41.050781 -23.132812 43.84375 -21.375 C 46.632812 -19.613281 48.03125 -16.878906 48.03125 -13.171875 C 48.03125 -9.054688 46.40625 -5.832031 43.15625 -3.5 C 39.90625 -1.164062 35.515625 0 29.984375 0 Z M 17.5 -30.1875 L 17.5 -25.9375 L 26.546875 -25.9375 C 27.734375 -25.9375 28.671875 -26.109375 29.359375 -26.453125 C 30.046875 -26.796875 30.390625 -27.332031 30.390625 -28.0625 C 30.390625 -28.789062 30.007812 -29.328125 29.25 -29.671875 C 28.5 -30.015625 27.53125 -30.1875 26.34375 -30.1875 Z M 17.5 -22.640625 L 17.5 -17.96875 L 27.171875 -17.96875 C 29.828125 -17.96875 31.15625 -18.75 31.15625 -20.3125 C 31.15625 -21.863281 29.828125 -22.640625 27.171875 -22.640625 Z M 17.5 -22.640625 "/></g></g></g><g fill="#121212" fill-opacity="1"><g transform="translate(115.422211, 122.150124)"><g><path d="M 22.4375 -18.796875 L 17.5625 -18.796875 L 19.421875 0 L 1.921875 0 L 1.921875 -48.03125 L 26.75 -48.03125 C 30.6875 -47.976562 34.175781 -47.492188 37.21875 -46.578125 C 40.257812 -45.671875 42.632812 -44.1875 44.34375 -42.125 C 46.0625 -40.0625 46.921875 -37.25 46.921875 -33.6875 C 46.921875 -30.070312 45.304688 -27.128906 42.078125 -24.859375 C 38.859375 -22.597656 33.976562 -21.46875 27.4375 -21.46875 L 27.4375 -20.65625 L 31.703125 -20.65625 C 35.453125 -20.65625 38.535156 -19.785156 40.953125 -18.046875 C 43.378906 -16.304688 45.117188 -13.890625 46.171875 -10.796875 C 47.222656 -7.710938 47.519531 -4.113281 47.0625 0 L 27.375 0 C 27.925781 -2.289062 28.257812 -4.539062 28.375 -6.75 C 28.488281 -8.96875 28.375 -10.992188 28.03125 -12.828125 C 27.6875 -14.660156 27.054688 -16.113281 26.140625 -17.1875 C 25.222656 -18.257812 23.988281 -18.796875 22.4375 -18.796875 Z M 25.796875 -28.46875 L 17.5625 -28.46875 L 17.5625 -23.734375 L 25.734375 -23.734375 C 27.328125 -23.734375 28.601562 -23.925781 29.5625 -24.3125 C 30.53125 -24.707031 31.015625 -25.296875 31.015625 -26.078125 C 31.015625 -26.984375 30.519531 -27.609375 29.53125 -27.953125 C 28.550781 -28.296875 27.304688 -28.46875 25.796875 -28.46875 Z M 25.796875 -28.46875 "/></g></g></g><g fill="#121212" fill-opacity="1"><g transform="translate(163.437655, 122.150124)"><g><path d="M 41.78125 -28.75 L 17.421875 -29.4375 L 17.421875 -26.625 L 35.40625 -27.3125 L 35.40625 -21.125 L 17.421875 -21.8125 L 17.421875 -18.875 L 43.296875 -20.109375 L 43.296875 0 L 1.921875 0 L 1.921875 -48.03125 L 41.78125 -48.03125 Z M 41.78125 -28.75 "/></g></g></g><g fill="#121212" fill-opacity="1"><g transform="translate(207.749037, 122.150124)"><g><path d="M 53.65625 0 L 34.71875 0 L 31.21875 -27.375 L 30.328125 -27.375 L 26.828125 0 L 7.953125 0 L 0 -48.03125 L 20.78125 -48.03125 L 19.828125 -19.96875 L 20.78125 -19.828125 L 26.484375 -45.484375 L 35.0625 -45.484375 L 40.828125 -19.828125 L 41.78125 -19.96875 L 40.828125 -48.03125 L 61.609375 -48.03125 Z M 53.65625 0 "/></g></g></g></g></g></svg>